HIERARCHY
ROOT Model
{
	OFFSET 0 0 0
	CHANNELS 6 Xposition Yposition Zposition Zrotation Xrotation Yrotation
	JOINT Model1
	{
		OFFSET 0 -2.25479 2.99384
		CHANNELS 3 Zrotation Xrotation Yrotation
		JOINT Model2
		{
			OFFSET 12.111 0 0
			CHANNELS 3 Zrotation Xrotation Yrotation
			JOINT Model3
			{
				OFFSET 11.5502 0 0
				CHANNELS 3 Zrotation Xrotation Yrotation
				JOINT Model4
				{
					OFFSET 11.781 0 0
					CHANNELS 3 Zrotation Xrotation Yrotation
					JOINT Model5
					{
						OFFSET 20.0601 0 0
						CHANNELS 3 Zrotation Xrotation Yrotation
						JOINT Model6
						{
							OFFSET 11.1962 0 0
							CHANNELS 3 Zrotation Xrotation Yrotation
							End Site
							{
								OFFSET 0 0 0
							}
						}
					}
					JOINT Model7
					{
						OFFSET 10.8223 0.417534 3.51114
						CHANNELS 3 Zrotation Xrotation Yrotation
						JOINT Model8
						{
							OFFSET -6.07944 0 0
							CHANNELS 3 Zrotation Xrotation Yrotation
							JOINT Model9
							{
								OFFSET -0.277405 10.39 -0.051239
								CHANNELS 3 Zrotation Xrotation Yrotation
								JOINT Model10
								{
									OFFSET -3.43909 -0.282043 1.86679
									CHANNELS 3 Zrotation Xrotation Yrotation
									JOINT Model11
									{
										OFFSET 13.0269 0 0
										CHANNELS 3 Zrotation Xrotation Yrotation
										JOINT Model12
										{
											OFFSET 10.8866 0 0
											CHANNELS 3 Zrotation Xrotation Yrotation
											JOINT Model13
											{
												OFFSET 16.7317 0 0
												CHANNELS 3 Zrotation Xrotation Yrotation
												JOINT Model14
												{
													OFFSET 11.8292 0 0
													CHANNELS 3 Zrotation Xrotation Yrotation
													JOINT Model15
													{
														OFFSET 4.82751 -3.73566 -0.836517
														CHANNELS 3 Zrotation Xrotation Yrotation
														JOINT Model16
														{
															OFFSET 3.75311 -0.0582886 -0.0186462
															CHANNELS 3 Zrotation Xrotation Yrotation
															JOINT Model17
															{
																OFFSET 2.88689 0.0192337 0.014801
																CHANNELS 3 Zrotation Xrotation Yrotation
																End Site
																{
																	OFFSET 0 0 0
																}
															}
														}
													}
													JOINT Model18
													{
														OFFSET 9.72197 -3.06458 0.23877
														CHANNELS 3 Zrotation Xrotation Yrotation
														JOINT Model19
														{
															OFFSET 4.61131 0 0
															CHANNELS 3 Zrotation Xrotation Yrotation
															JOINT Model20
															{
																OFFSET 2.8969 -7.62939e-006 0
																CHANNELS 3 Zrotation Xrotation Yrotation
																End Site
																{
																	OFFSET 0 0 0
																}
															}
														}
													}
													JOINT Model21
													{
														OFFSET 9.54431 -0.745064 0.588928
														CHANNELS 3 Zrotation Xrotation Yrotation
														JOINT Model22
														{
															OFFSET 5.33978 0 0
															CHANNELS 3 Zrotation Xrotation Yrotation
															JOINT Model23
															{
																OFFSET 3.03619 7.62939e-006 0
																CHANNELS 3 Zrotation Xrotation Yrotation
																End Site
																{
																	OFFSET 0 0 0
																}
															}
														}
													}
													JOINT Model24
													{
														OFFSET 9.47758 1.51286 0.485107
														CHANNELS 3 Zrotation Xrotation Yrotation
														JOINT Model25
														{
															OFFSET 4.96136 7.62939e-006 0
															CHANNELS 3 Zrotation Xrotation Yrotation
															JOINT Model26
															{
																OFFSET 2.51965 0 0
																CHANNELS 3 Zrotation Xrotation Yrotation
																End Site
																{
																	OFFSET 0 0 0
																}
															}
														}
													}
													JOINT Model27
													{
														OFFSET 9.34247 3.34117 -0.239288
														CHANNELS 3 Zrotation Xrotation Yrotation
														JOINT Model28
														{
															OFFSET 3.28259 2.28882e-005 0
															CHANNELS 3 Zrotation Xrotation Yrotation
															JOINT Model29
															{
																OFFSET 2.1292 0 0
																CHANNELS 3 Zrotation Xrotation Yrotation
																End Site
																{
																	OFFSET 0 0 0
																}
															}
														}
													}
												}
											}
										}
									}
								}
							}
						}
					}
					JOINT Model30
					{
						OFFSET 10.8223 0.4179 -3.51108
						CHANNELS 3 Zrotation Xrotation Yrotation
						JOINT Model31
						{
							OFFSET 6.07944 0 0
							CHANNELS 3 Zrotation Xrotation Yrotation
							JOINT Model32
							{
								OFFSET 0.277405 -10.39 0.051239
								CHANNELS 3 Zrotation Xrotation Yrotation
								JOINT Model33
								{
									OFFSET 3.43909 0.282043 -1.86679
									CHANNELS 3 Zrotation Xrotation Yrotation
									JOINT Model34
									{
										OFFSET -13.0269 0 0
										CHANNELS 3 Zrotation Xrotation Yrotation
										JOINT Model35
										{
											OFFSET -10.8866 0 0
											CHANNELS 3 Zrotation Xrotation Yrotation
											JOINT Model36
											{
												OFFSET -16.7317 0 0
												CHANNELS 3 Zrotation Xrotation Yrotation
												JOINT Model37
												{
													OFFSET -11.8292 0 0
													CHANNELS 3 Zrotation Xrotation Yrotation
													JOINT Model38
													{
														OFFSET -4.82751 3.73566 0.836517
														CHANNELS 3 Zrotation Xrotation Yrotation
														JOINT Model39
														{
															OFFSET -3.75311 0.0582886 0.0186462
															CHANNELS 3 Zrotation Xrotation Yrotation
															JOINT Model40
															{
																OFFSET -2.88687 -0.0192337 -0.014801
																CHANNELS 3 Zrotation Xrotation Yrotation
																End Site
																{
																	OFFSET 0 0 0
																}
															}
														}
													}
													JOINT Model41
													{
														OFFSET -9.72198 3.06459 -0.23877
														CHANNELS 3 Zrotation Xrotation Yrotation
														JOINT Model42
														{
															OFFSET -4.6113 0 0
															CHANNELS 3 Zrotation Xrotation Yrotation
															JOINT Model43
															{
																OFFSET -2.89691 0 0
																CHANNELS 3 Zrotation Xrotation Yrotation
																End Site
																{
																	OFFSET 0 0 0
																}
															}
														}
													}
													JOINT Model44
													{
														OFFSET -9.54431 0.745064 -0.588928
														CHANNELS 3 Zrotation Xrotation Yrotation
														JOINT Model45
														{
															OFFSET -5.33978 0 0
															CHANNELS 3 Zrotation Xrotation Yrotation
															JOINT Model46
															{
																OFFSET -3.03619 -1.52588e-005 0
																CHANNELS 3 Zrotation Xrotation Yrotation
																End Site
																{
																	OFFSET 0 0 0
																}
															}
														}
													}
													JOINT Model47
													{
														OFFSET -9.4776 -1.51286 -0.485107
														CHANNELS 3 Zrotation Xrotation Yrotation
														JOINT Model48
														{
															OFFSET -4.96136 -1.52588e-005 0
															CHANNELS 3 Zrotation Xrotation Yrotation
															JOINT Model49
															{
																OFFSET -2.51965 0 0
																CHANNELS 3 Zrotation Xrotation Yrotation
																End Site
																{
																	OFFSET 0 0 0
																}
															}
														}
													}
													JOINT Model50
													{
														OFFSET -9.34247 -3.34118 0.239288
														CHANNELS 3 Zrotation Xrotation Yrotation
														JOINT Model51
														{
															OFFSET -3.28259 -2.28882e-005 0
															CHANNELS 3 Zrotation Xrotation Yrotation
															JOINT Model52
															{
																OFFSET -2.12921 0 0
																CHANNELS 3 Zrotation Xrotation Yrotation
																End Site
																{
																	OFFSET 0 0 0
																}
															}
														}
													}
												}
											}
										}
									}
								}
							}
						}
					}
				}
			}
		}
	}
	JOINT Model53
	{
		OFFSET 4.38025 -2.14632 -1.11517
		CHANNELS 3 Zrotation Xrotation Yrotation
		JOINT Model54
		{
			OFFSET 0 0 4.94998
			CHANNELS 3 Zrotation Xrotation Yrotation
			JOINT Model55
			{
				OFFSET 18.5642 0 0
				CHANNELS 3 Zrotation Xrotation Yrotation
				JOINT Model56
				{
					OFFSET 21.2884 0 0
					CHANNELS 3 Zrotation Xrotation Yrotation
					JOINT Model57
					{
						OFFSET 30.261 0 0
						CHANNELS 3 Zrotation Xrotation Yrotation
						JOINT Model58
						{
							OFFSET 11.7259 0 0
							CHANNELS 3 Zrotation Xrotation Yrotation
							JOINT Model59
							{
								OFFSET 10.682 0 0
								CHANNELS 3 Zrotation Xrotation Yrotation
								End Site
								{
									OFFSET 0 0 0
								}
							}
						}
					}
				}
			}
		}
	}
	JOINT Model60
	{
		OFFSET -4.38025 -2.14632 -1.11517
		CHANNELS 3 Zrotation Xrotation Yrotation
		JOINT Model61
		{
			OFFSET 0 0 -4.94998
			CHANNELS 3 Zrotation Xrotation Yrotation
			JOINT Model62
			{
				OFFSET -18.5642 0 0
				CHANNELS 3 Zrotation Xrotation Yrotation
				JOINT Model63
				{
					OFFSET -21.2884 0 0
					CHANNELS 3 Zrotation Xrotation Yrotation
					JOINT Model64
					{
						OFFSET -30.261 0 0
						CHANNELS 3 Zrotation Xrotation Yrotation
						JOINT Model65
						{
							OFFSET -11.7259 0 0
							CHANNELS 3 Zrotation Xrotation Yrotation
							JOINT Model66
							{
								OFFSET -10.682 0 0
								CHANNELS 3 Zrotation Xrotation Yrotation
								End Site
								{
									OFFSET 0 0 0
								}
							}
						}
					}
				}
			}
		}
	}
}
MOTION
Frames: 6
Frame Time: 0.033333
-422.182 168.75 -481.285 57.6488 -54.6205 67.2861 -180 4.29621e-031 -90 1.35906 -0.560137 -2.90025 2.68821 -1.1886 -5.78686 2.68821 -1.18816 -5.78688 -15.4555 -1.46093 19.4639 26.2442 5.01687 -3.24317 120.092 75.5343 58.4939 29.6624 33.9832 -2.86762 -167.277 84.4999 48.8109 99.1776 -22.9178 -17.699 2.8081e-005 -29.6159 3.44112e-005 -43.8604 -23.5051 0.461735 4.07478e-007 -35.8866 2.03938e-007 19.5881 2.4028 13.8535 -72.0648 39.0385 39.3397 33.3638 2.10362 14.835 0.588947 0.308273 6.35287 -99.6409 81.413 100.35 -0.0181409 2.7794e-005 -0.117315 -0.124139 0.00241114 -0.799296 -79.8382 79.5773 80.5374 -0.000225774 -0.000220908 2.22667e-005 -0.000956224 0.000122915 -2.72229e-005 -66.7416 80.4058 67.2171 -0.000437128 1.59605e-005 -2.72488e-005 -0.000136598 -0.000109271 -5.45441e-005 -6.42159 81.2158 8.01779 -0.000218555 1.69189e-005 0.000212214 0.000901599 -0.000184787 -0.000218466 -59.9282 75.5373 58.5147 34.1209 16.5843 -5.01742 -167.277 84.4999 48.8109 114.912 -5.09775 -30.4792 9.12512e-006 -4.25241 2.91701e-005 -48.058 9.4733 0.458743 -5.30956e-006 13.5606 2.25236e-006 26.672 0.274462 1.15773 -72.0648 39.0385 39.3397 33.3638 2.10361 14.835 0.588946 0.308273 6.35287 -99.6409 81.413 100.35 -0.0181409 3.00676e-005 -0.117315 -0.124139 0.00241111 -0.799296 -79.8382 79.5773 80.5374 -0.00026065 -0.000218581 2.3519e-005 -0.000956231 0.000122977 -2.73904e-005 -66.7416 80.4058 67.2171 -0.000437138 1.48697e-005 -2.73727e-005 -0.000136611 -0.000109299 -5.47119e-005 -6.42159 81.2158 8.01779 -0.000218576 1.95839e-005 0.00021225 0.00090157 -0.000191238 -0.00021863 0.000811311 0.56661 89.91 -48.9074 -2.36792 -14.4323 4.63949e-007 -1.22112 -2.79189e-009 66.2532 7.58693 -0.00779179 -4.60387e-008 11.2688 -7.84085e-008 -71.5869 1.24585 -1.666 -47.9698 6.81433 0.0587264 -180 -0.566579 -90.09 -15.75 3.71663 0.0692803 -9.271e-007 5.62229 -3.47849e-008 44.1215 2.47326 -0.00550058 3.11636e-007 3.62736 -3.58106e-007 -5.12153 -3.58971 8.81508 18.0231 -7.1734 15.2859 
-415.538 172.019 -474.483 55.5221 -59.7175 66.2911 -180 4.29621e-031 -90 1.10691 -0.510885 -2.34464 2.1921 -1.06697 -4.67927 2.1921 -1.06653 -4.67929 -12.7769 -0.133926 22.3638 27.8301 5.76446 -8.83247 120.092 75.5343 58.4939 21.6707 35.7672 0.885381 -167.277 84.4999 48.8109 107.371 -22.6085 -15.67 2.52473e-005 -25.348 3.31027e-005 -53.1757 -25.5317 0.541937 4.21573e-007 -38.9669 2.12507e-007 18.8391 2.01776 12.1185 -72.0648 39.0385 39.3397 33.3638 2.10362 14.835 0.588947 0.308273 6.35287 -99.6409 81.413 100.35 -0.0181409 2.7794e-005 -0.117315 -0.124139 0.00241114 -0.799296 -79.8382 79.5773 80.5374 -0.000225774 -0.000220908 2.22667e-005 -0.000956224 0.000122915 -2.72229e-005 -66.7416 80.4058 67.2171 -0.000437128 1.59605e-005 -2.72488e-005 -0.000136598 -0.000109271 -5.45441e-005 -6.42159 81.2158 8.01779 -0.000218555 1.69189e-005 0.000212214 0.000901599 -0.000184787 -0.000218466 -59.9282 75.5373 58.5147 34.9057 14.375 -5.25813 -167.277 84.4999 48.8109 109.735 -3.75052 -26.4105 8.55313e-006 -3.13053 2.91332e-005 -49.1425 10.7079 0.468195 -5.38488e-006 15.4079 2.2712e-006 26.2615 0.370538 1.58829 -72.0648 39.0385 39.3397 33.3638 2.10361 14.835 0.588946 0.308273 6.35287 -99.6409 81.413 100.35 -0.0181409 3.00676e-005 -0.117315 -0.124139 0.00241111 -0.799296 -79.8382 79.5773 80.5374 -0.00026065 -0.000218581 2.3519e-005 -0.000956231 0.000122977 -2.73904e-005 -66.7416 80.4058 67.2171 -0.000437138 1.48697e-005 -2.73727e-005 -0.000136611 -0.000109299 -5.47119e-005 -6.42159 81.2158 8.01779 -0.000218576 1.95839e-005 0.00021225 0.00090157 -0.000191238 -0.00021863 0.000811311 0.56661 89.91 -34.8551 -3.95522 -13.7106 4.63954e-007 -1.11933 -2.79179e-009 56.1224 5.67124 -0.0070464 -4.99965e-008 8.40657 -7.77321e-008 -70.6051 -0.35363 -0.829491 -51.6582 7.53505 0.389031 -180 -0.566579 -90.09 -21.8305 2.72096 0.993203 -9.28298e-007 3.65239 -3.4688e-008 47.9277 2.23295 -0.00592507 3.09341e-007 3.2607 -3.57969e-007 -11.7957 -4.30064 8.49635 -98.5715 8.28635 4.91016 
-408.758 174.793 -467.959 52.0891 -64.0339 63.3611 -180 4.29621e-031 -90 0.898259 -0.514137 -1.72521 1.78072 -1.05546 -3.44236 1.78072 -1.05502 -3.44238 -9.46614 1.94069 22.6656 27.2861 6.60129 -12.5003 120.092 75.5343 58.4939 15.1464 36.2103 3.99001 -167.277 84.4999 48.8109 113.387 -22.707 -14.5409 2.38562e-005 -23.1332 3.25314e-005 -60.8236 -27.041 0.598621 4.32743e-007 -41.2324 2.19703e-007 17.6805 1.68462 10.8003 -72.0648 39.0385 39.3397 33.3638 2.10362 14.835 0.588947 0.308273 6.35287 -99.6409 81.413 100.35 -0.0181409 2.7794e-005 -0.117315 -0.124139 0.00241114 -0.799296 -79.8382 79.5773 80.5374 -0.000225774 -0.000220908 2.22667e-005 -0.000956224 0.000122915 -2.72229e-005 -66.7416 80.4058 67.2171 -0.000437128 1.59605e-005 -2.72488e-005 -0.000136598 -0.000109271 -5.45441e-005 -6.42159 81.2158 8.01779 -0.000218555 1.69189e-005 0.000212214 0.000901599 -0.000184787 -0.000218466 -59.9282 75.5373 58.5147 35.9115 14.1777 -5.53577 -167.277 84.4999 48.8109 106.631 -3.11338 -24.2003 8.26867e-006 -2.57165 2.91191e-005 -50.7191 12.4759 0.482118 -5.49517e-006 18.0542 2.30295e-006 25.5242 0.731202 3.22743 -72.0648 39.0385 39.3397 33.3638 2.10361 14.835 0.588946 0.308273 6.35287 -99.6409 81.413 100.35 -0.0181409 3.00676e-005 -0.117315 -0.124139 0.00241111 -0.799296 -79.8382 79.5773 80.5374 -0.00026065 -0.000218581 2.3519e-005 -0.000956231 0.000122977 -2.73904e-005 -66.7416 80.4058 67.2171 -0.000437138 1.48697e-005 -2.73727e-005 -0.000136611 -0.000109299 -5.47119e-005 -6.42159 81.2158 8.01779 -0.000218576 1.95839e-005 0.00021225 0.00090157 -0.000191238 -0.00021863 0.000811311 0.56661 89.91 -22.5665 -3.70302 -10.1817 4.64e-007 -0.19081 -2.79127e-009 45.2433 4.37169 -0.00598543 -5.26356e-008 6.47329 -7.73903e-008 -61.8019 -3.62914 1.5166 -59.4286 12.5157 2.63993 -180 -0.566579 -90.09 -29.5597 2.26031 1.62314 -9.28806e-007 2.81458 -3.46593e-008 53.2364 0.983642 -0.00636664 2.97582e-007 1.37885 -3.57493e-007 -26.2165 -5.91774 7.81564 -75.9035 3.83522 -0.538365 
-402.432 176.591 -462.134 48.2698 -66.0109 59.0729 -180 4.29621e-031 -90 0.812456 -0.49948 -1.34009 1.61308 -1.01821 -2.67313 1.61308 -1.01777 -2.67314 -7.41661 3.42456 20.5325 25.2559 7.19005 -12.7842 120.092 75.5343 58.4939 12.6002 35.9498 5.14287 -167.277 84.4999 48.8109 114.96 -23.1894 -14.0997 2.3892e-005 -23.1912 3.25455e-005 -63.4798 -27.7484 0.617312 4.38211e-007 -42.2874 2.23345e-007 16.4694 1.55933 10.7439 -72.0648 39.0385 39.3397 33.3638 2.10362 14.835 0.588947 0.308273 6.35287 -99.6409 81.413 100.35 -0.0181409 2.7794e-005 -0.117315 -0.124139 0.00241114 -0.799296 -79.8382 79.5773 80.5374 -0.000225774 -0.000220908 2.22667e-005 -0.000956224 0.000122915 -2.72229e-005 -66.7416 80.4058 67.2171 -0.000437128 1.59605e-005 -2.72488e-005 -0.000136598 -0.000109271 -5.45441e-005 -6.42159 81.2158 8.01779 -0.000218555 1.69189e-005 0.000212214 0.000901599 -0.000184787 -0.000218466 -59.9282 75.5373 58.5147 36.5498 16.0062 -5.72896 -167.277 84.4999 48.8109 106.6 -3.06925 -24.7079 8.38772e-006 -2.80561 2.91247e-005 -52.4552 12.868 0.494609 -5.5199e-006 18.6373 2.31074e-006 25.7507 1.03129 4.50951 -72.0648 39.0385 39.3397 33.3638 2.10361 14.835 0.588946 0.308273 6.35287 -99.6409 81.413 100.35 -0.0181409 3.00676e-005 -0.117315 -0.124139 0.00241111 -0.799296 -79.8382 79.5773 80.5374 -0.00026065 -0.000218581 2.3519e-005 -0.000956231 0.000122977 -2.73904e-005 -66.7416 80.4058 67.2171 -0.000437138 1.48697e-005 -2.73727e-005 -0.000136611 -0.000109299 -5.47119e-005 -6.42159 81.2158 8.01779 -0.000218576 1.95839e-005 0.00021225 0.00090157 -0.000191238 -0.00021863 0.000811311 0.56661 89.91 -17.5069 -2.91194 -7.03693 4.64004e-007 -0.109492 -2.79126e-009 40.8827 7.1558 -0.00549655 -4.68907e-008 10.6569 -7.82465e-008 -49.4693 -7.02879 5.18918 -64.0049 26.0885 9.12998 -180 -0.566579 -90.09 -36.2272 2.29105 1.62599 -9.28685e-007 3.01414 -3.46655e-008 54.2347 -0.364698 -0.00648126 2.84956e-007 -0.645042 -3.57412e-007 -41.2274 -8.53471 7.74474 -52.834 3.85941 -0.373969 
-396.702 177.095 -456.751 46.7408 -65.5025 56.3806 -180 4.29621e-031 -90 0.876795 -0.368858 -1.28709 1.74512 -0.757712 -2.56846 1.74512 -0.757275 -2.56848 -6.32205 3.63153 17.6058 22.0968 6.99714 -10.7736 120.092 75.5343 58.4939 14.148 35.5341 4.33815 -167.277 84.4999 48.8109 112.054 -24.2731 -13.3217 2.52184e-005 -25.3028 3.30903e-005 -60.7813 -27.1433 0.59893 4.33528e-007 -41.386 2.20222e-007 16.7046 1.79021 12.1488 -72.0648 39.0385 39.3397 33.3638 2.10362 14.835 0.588947 0.308273 6.35287 -99.6409 81.413 100.35 -0.0181409 2.7794e-005 -0.117315 -0.124139 0.00241114 -0.799296 -79.8382 79.5773 80.5374 -0.000225774 -0.000220908 2.22667e-005 -0.000956224 0.000122915 -2.72229e-005 -66.7416 80.4058 67.2171 -0.000437128 1.59605e-005 -2.72488e-005 -0.000136598 -0.000109271 -5.45441e-005 -6.42159 81.2158 8.01779 -0.000218555 1.69189e-005 0.000212214 0.000901599 -0.000184787 -0.000218466 -59.9282 75.5373 58.5147 37.178 19.0883 -5.95707 -167.277 84.4999 48.8109 109.861 -3.96881 -26.8045 8.77952e-006 -3.5749 2.91465e-005 -54.4292 10.8662 0.503845 -5.39404e-006 15.6304 2.27365e-006 28.1289 0.994002 3.96617 -72.0648 39.0385 39.3397 33.3638 2.10361 14.835 0.588946 0.308273 6.35287 -99.6409 81.413 100.35 -0.0181409 3.00676e-005 -0.117315 -0.124139 0.00241111 -0.799296 -79.8382 79.5773 80.5374 -0.00026065 -0.000218581 2.3519e-005 -0.000956231 0.000122977 -2.73904e-005 -66.7416 80.4058 67.2171 -0.000437138 1.48697e-005 -2.73727e-005 -0.000136611 -0.000109299 -5.47119e-005 -6.42159 81.2158 8.01779 -0.000218576 1.95839e-005 0.00021225 0.00090157 -0.000191238 -0.00021863 0.000811311 0.56661 89.91 -21.3074 -3.36062 -6.28618 4.63932e-007 -1.58429 -2.79232e-009 47.3877 11.4069 -0.00622185 -3.78177e-008 17.0226 -8.04201e-008 -44.9361 -10.4799 8.71032 -51.4108 38.8313 6.13764 -180 -0.566579 -90.09 -38.3601 2.99978 0.966726 -9.27892e-007 4.31997 -3.47162e-008 47.6701 -1.82643 -0.00594285 2.71326e-007 -2.82797 -3.57825e-007 -49.7797 -7.87524 5.79186 -44.0003 1.72723 -0.487395 
-391.555 176.628 -451.186 48.7025 -62.6288 56.997 -180 4.29621e-031 -90 1.0322 -0.249782 -1.41943 2.0579 -0.525451 -2.83417 2.0579 -0.525015 -2.83418 -4.95204 2.82932 14.713 17.9872 5.89499 -7.96815 120.092 75.5343 58.4939 19.4108 35.0599 1.83323 -167.277 84.4999 48.8109 107.178 -26.0392 -12.3821 2.75391e-005 -28.8254 3.41467e-005 -55.3615 -25.8167 0.558285 4.23641e-007 -39.3978 2.13814e-007 17.9867 2.16158 13.5954 -72.0648 39.0385 39.3397 33.3638 2.10362 14.835 0.588947 0.308273 6.35287 -99.6409 81.413 100.35 -0.0181409 2.7794e-005 -0.117315 -0.124139 0.00241114 -0.799296 -79.8382 79.5773 80.5374 -0.000225774 -0.000220908 2.22667e-005 -0.000956224 0.000122915 -2.72229e-005 -66.7416 80.4058 67.2171 -0.000437128 1.59605e-005 -2.72488e-005 -0.000136598 -0.000109271 -5.45441e-005 -6.42159 81.2158 8.01779 -0.000218555 1.69189e-005 0.000212214 0.000901599 -0.000184787 -0.000218466 -59.9282 75.5373 58.5147 37.5253 22.5306 -6.12783 -167.277 84.4999 48.8109 114.973 -5.67067 -29.5345 9.3082e-006 -4.61086 2.91842e-005 -55.6006 8.5389 0.507712 -5.25236e-006 12.1378 2.23963e-006 30.7246 0.818839 2.97977 -72.0648 39.0385 39.3397 33.3638 2.10361 14.835 0.588946 0.308273 6.35287 -99.6409 81.413 100.35 -0.0181409 3.00676e-005 -0.117315 -0.124139 0.00241111 -0.799296 -79.8382 79.5773 80.5374 -0.00026065 -0.000218581 2.3519e-005 -0.000956231 0.000122977 -2.73904e-005 -66.7416 80.4058 67.2171 -0.000437138 1.48697e-005 -2.73727e-005 -0.000136611 -0.000109299 -5.47119e-005 -6.42159 81.2158 8.01779 -0.000218576 1.95839e-005 0.00021225 0.00090157 -0.000191238 -0.00021863 0.000811311 0.56661 89.91 -31.2141 -3.82591 -8.00623 4.63887e-007 -2.49318 -2.7939e-009 58.6674 11.619 -0.00722577 -3.7373e-008 17.3251 -8.05514e-008 -48.3093 -11.6637 8.98184 -43.9567 20.6517 0.802942 -180 -0.566579 -90.09 -35.0729 5.28921 0.260791 -9.25674e-007 7.94823 -3.49533e-008 38.1478 -5.27876 -0.252261 2.38814e-007 -7.99024 -3.60893e-007 -55.5325 -5.254 3.15427 -42.4026 -3.93148 -0.655625 
